# xmcd
#
# Track frame offsets:
#	150
#	14807
#	24296
#	41181
#	56983
#	69455
#	89450
#	103419
#	120596
#	140004
#	156920
#	173322
#	186968
#	202832
#	220425
#	233078
#	249027
#	262591
#	275230
#	289065
#	304169
#	318410
#
# Disc length: 4494 seconds
#
# Revision: 0
# Processed by: cddbd v1.5.2PL0 Copyright (c) Steve Scherf et al.
# Submitted via: EZCDAudioConverter 1.3.4.1
#
DISCID=44118c16
DTITLE=Catherine Britt - The Hillbilly Pickin’ Ramblin’ Girl So Far (Deluxe Pa
DTITLE=ck) The Songs You Know
DYEAR=2013
DGENRE=Country
TTITLE0=Catherine Britt - Who Cares
TTITLE1=Catherine Britt - That Don’t Bother Me!
TTITLE2=Catherine Britt -  In The Pines
TTITLE3=Catherine Britt - 46 Miles From Alice
TTITLE4=Catherine Britt - Hillbilly Pickin’ Ramblin’ Girl
TTITLE5=Catherine Britt - Drive In Movie
TTITLE6=Catherine Britt - The Upside Of Being Down
TTITLE7=Catherine Britt - Too Far Gone
TTITLE8=Catherine Britt - Poor Man’s Pride
TTITLE9=Catherine Britt - Swingin’ Door
TTITLE10=Catherine Britt - Wrapped
TTITLE11=Catherine Britt - I’m Gone
TTITLE12=Catherine Britt - Little Wildflower
TTITLE13=Catherine Britt - What I Did Last Night
TTITLE14=Catherine Britt - Lucky Girl
TTITLE15=Catherine Britt - Not Your Cinderella
TTITLE16=Catherine Britt - Can't Change A Thing 
TTITLE17=Catherine Britt - I Want You Back
TTITLE18=Catherine Britt - Sweet Emmylou 
TTITLE19=Catherine Britt - Always Never Enough 
TTITLE20=Catherine Britt - Charlestown Road
TTITLE21=Catherine Britt (Feat Tim Rogers)  - Troubled Man (Feat Tim Rogers) 
EXTD=
EXTT0=
EXTT1=
EXTT2=
EXTT3=
EXTT4=
EXTT5=
EXTT6=
EXTT7=
EXTT8=
EXTT9=
EXTT10=
EXTT11=
EXTT12=
EXTT13=
EXTT14=
EXTT15=
EXTT16=
EXTT17=
EXTT18=
EXTT19=
EXTT20=
EXTT21=
PLAYORDER=
